<svg width="236" height="201" viewBox="0 0 236 201" fill="none" xmlns="http://www.w3.org/2000/svg">
<circle cx="111.2" cy="100.5" r="100.5" fill="#181818"/>
<g filter="url(#filter0_d_311_191)">
<path d="M32.8103 156.78L35.2478 164.392L42.8603 166.83L35.2478 169.267L32.8103 176.88L30.3728 169.267L22.7603 166.83L30.3728 164.392L32.8103 156.78Z" fill="#D5B50C"/>
</g>
<g filter="url(#filter1_d_311_191)">
<path d="M216.859 76.38L220.385 90.59L231.398 95.14L220.385 99.69L216.859 113.9L213.333 99.69L202.32 95.14L213.333 90.59L216.859 76.38Z" fill="#D5B50C"/>
</g>
<g filter="url(#filter2_d_311_191)">
<path d="M202.806 103.18L205.199 112.823L212.671 115.91L205.199 118.998L202.806 128.64L200.413 118.998L192.94 115.91L200.413 112.823L202.806 103.18Z" fill="#D5B50C"/>
</g>
<g filter="url(#filter3_d_311_191)">
<path d="M16.9812 134L20.1297 146.688L29.9625 150.75L20.1297 154.813L16.9812 167.5L13.8328 154.813L4 150.75L13.8328 146.688L16.9812 134Z" fill="#D5B50C"/>
</g>
<g filter="url(#filter4_d_311_191)">
<path d="M32.626 113.9L35.0188 123.542L42.4918 126.63L35.0188 129.718L32.626 139.36L30.2332 129.718L22.7603 126.63L30.2332 123.542L32.626 113.9Z" fill="#D5B50C"/>
</g>
<g filter="url(#filter5_d_311_191)">
<path d="M115.496 70.5573C114.248 70.4412 112.996 70.3771 111.743 70.3652C86.8949 70.3652 66.7623 90.5351 66.7623 115.423C66.7623 122.848 68.5884 129.828 71.7618 136C70.1071 130.977 69.2623 125.723 69.2592 120.434C69.2592 94.0467 89.644 72.4779 115.496 70.5573ZM129.795 152.332C125.402 155.274 120.578 157.514 115.496 158.971C122.594 158.097 129.388 155.566 135.327 151.581C155.976 137.7 161.58 110.014 147.846 89.7238C147.145 88.7106 146.402 87.7274 145.619 86.7769C158.309 108.945 151.682 137.617 129.795 152.332Z" fill="url(#paint0_linear_311_191)"/>
<path d="M147.347 70.2878V45.3535C147.347 44.3101 146.777 43.4329 145.971 42.8882L174.133 0H120.137L111.067 13.6052L101.997 0H48L76.1564 42.8853C75.3509 43.43 74.7804 44.3101 74.7804 45.3535V70.2878C61.9349 80.8027 53.7333 96.7729 53.7333 114.667C53.7333 146.329 79.4043 172 111.067 172C113.022 172 114.948 171.9 116.852 171.708C145.796 168.809 168.4 144.38 168.4 114.667C168.4 96.7729 160.193 80.8027 147.347 70.2878ZM136.368 2.86667H154.508L129.207 40.8185L120.137 27.2133L136.368 2.86667ZM138.277 54.4237L141.066 50.2441C141.218 50.6024 141.301 50.9923 141.301 51.4022V63.4967C141.299 63.8707 141.222 64.2406 141.076 64.585C140.93 64.9294 140.717 65.2415 140.45 65.5033C131.85 60.3491 121.822 57.3333 111.067 57.3333C100.709 57.335 90.5487 60.1607 81.6776 65.5062C81.1399 64.9748 80.8339 64.2526 80.8262 63.4967V51.4022C80.8262 50.9923 80.9151 50.5995 81.0613 50.2441L83.8505 54.4265L138.277 54.4237ZM67.6252 2.86667H85.7654L118.228 51.557H100.087L67.6252 2.86667ZM111.067 163.4C84.1515 163.4 62.3333 141.582 62.3333 114.667C62.3333 87.7544 84.1515 65.9333 111.067 65.9333C137.976 65.9333 159.8 87.7544 159.8 114.667C159.8 141.582 137.976 163.4 111.067 163.4Z" fill="url(#paint1_linear_311_191)"/>
<path d="M105.081 107.002L110.037 97.5341L114.992 107.002C115.61 108.184 116.721 109.03 118.024 109.313L128.206 111.526L120.998 119.97C120.195 120.911 119.815 122.141 119.947 123.371L121.148 134.564L112.026 130.068C110.772 129.45 109.302 129.45 108.047 130.068L98.9257 134.564L100.127 123.371C100.259 122.141 99.8785 120.911 99.0751 119.97L91.867 111.526L102.05 109.313C103.353 109.03 104.463 108.184 105.081 107.002Z" stroke="url(#paint2_linear_311_191)" stroke-width="5"/>
</g>
<defs>
<filter id="filter0_d_311_191" x="18.7603" y="156.78" width="28.1001" height="28.1" filterUnits="userSpaceOnUse" color-interpolation-filters="sRGB">
<feFlood flood-opacity="0" result="BackgroundImageFix"/>
<feColorMatrix in="SourceAlpha" type="matrix" values="0 0 0 0 0 0 0 0 0 0 0 0 0 0 0 0 0 0 127 0" result="hardAlpha"/>
<feOffset dy="4"/>
<feGaussianBlur stdDeviation="2"/>
<feComposite in2="hardAlpha" operator="out"/>
<feColorMatrix type="matrix" values="0 0 0 0 0 0 0 0 0 0 0 0 0 0 0 0 0 0 1 0"/>
<feBlend mode="normal" in2="BackgroundImageFix" result="effect1_dropShadow_311_191"/>
<feBlend mode="normal" in="SourceGraphic" in2="effect1_dropShadow_311_191" result="shape"/>
</filter>
<filter id="filter1_d_311_191" x="198.32" y="76.38" width="37.0781" height="45.52" filterUnits="userSpaceOnUse" color-interpolation-filters="sRGB">
<feFlood flood-opacity="0" result="BackgroundImageFix"/>
<feColorMatrix in="SourceAlpha" type="matrix" values="0 0 0 0 0 0 0 0 0 0 0 0 0 0 0 0 0 0 127 0" result="hardAlpha"/>
<feOffset dy="4"/>
<feGaussianBlur stdDeviation="2"/>
<feComposite in2="hardAlpha" operator="out"/>
<feColorMatrix type="matrix" values="0 0 0 0 0 0 0 0 0 0 0 0 0 0 0 0 0 0 1 0"/>
<feBlend mode="normal" in2="BackgroundImageFix" result="effect1_dropShadow_311_191"/>
<feBlend mode="normal" in="SourceGraphic" in2="effect1_dropShadow_311_191" result="shape"/>
</filter>
<filter id="filter2_d_311_191" x="188.94" y="103.18" width="27.7314" height="33.46" filterUnits="userSpaceOnUse" color-interpolation-filters="sRGB">
<feFlood flood-opacity="0" result="BackgroundImageFix"/>
<feColorMatrix in="SourceAlpha" type="matrix" values="0 0 0 0 0 0 0 0 0 0 0 0 0 0 0 0 0 0 127 0" result="hardAlpha"/>
<feOffset dy="4"/>
<feGaussianBlur stdDeviation="2"/>
<feComposite in2="hardAlpha" operator="out"/>
<feColorMatrix type="matrix" values="0 0 0 0 0 0 0 0 0 0 0 0 0 0 0 0 0 0 1 0"/>
<feBlend mode="normal" in2="BackgroundImageFix" result="effect1_dropShadow_311_191"/>
<feBlend mode="normal" in="SourceGraphic" in2="effect1_dropShadow_311_191" result="shape"/>
</filter>
<filter id="filter3_d_311_191" x="0" y="134" width="33.9624" height="41.5" filterUnits="userSpaceOnUse" color-interpolation-filters="sRGB">
<feFlood flood-opacity="0" result="BackgroundImageFix"/>
<feColorMatrix in="SourceAlpha" type="matrix" values="0 0 0 0 0 0 0 0 0 0 0 0 0 0 0 0 0 0 127 0" result="hardAlpha"/>
<feOffset dy="4"/>
<feGaussianBlur stdDeviation="2"/>
<feComposite in2="hardAlpha" operator="out"/>
<feColorMatrix type="matrix" values="0 0 0 0 0 0 0 0 0 0 0 0 0 0 0 0 0 0 1 0"/>
<feBlend mode="normal" in2="BackgroundImageFix" result="effect1_dropShadow_311_191"/>
<feBlend mode="normal" in="SourceGraphic" in2="effect1_dropShadow_311_191" result="shape"/>
</filter>
<filter id="filter4_d_311_191" x="18.7603" y="113.9" width="27.7314" height="33.46" filterUnits="userSpaceOnUse" color-interpolation-filters="sRGB">
<feFlood flood-opacity="0" result="BackgroundImageFix"/>
<feColorMatrix in="SourceAlpha" type="matrix" values="0 0 0 0 0 0 0 0 0 0 0 0 0 0 0 0 0 0 127 0" result="hardAlpha"/>
<feOffset dy="4"/>
<feGaussianBlur stdDeviation="2"/>
<feComposite in2="hardAlpha" operator="out"/>
<feColorMatrix type="matrix" values="0 0 0 0 0 0 0 0 0 0 0 0 0 0 0 0 0 0 1 0"/>
<feBlend mode="normal" in2="BackgroundImageFix" result="effect1_dropShadow_311_191"/>
<feBlend mode="normal" in="SourceGraphic" in2="effect1_dropShadow_311_191" result="shape"/>
</filter>
<filter id="filter5_d_311_191" x="44" y="0" width="134.133" height="180" filterUnits="userSpaceOnUse" color-interpolation-filters="sRGB">
<feFlood flood-opacity="0" result="BackgroundImageFix"/>
<feColorMatrix in="SourceAlpha" type="matrix" values="0 0 0 0 0 0 0 0 0 0 0 0 0 0 0 0 0 0 127 0" result="hardAlpha"/>
<feOffset dy="4"/>
<feGaussianBlur stdDeviation="2"/>
<feComposite in2="hardAlpha" operator="out"/>
<feColorMatrix type="matrix" values="0 0 0 0 0 0 0 0 0 0 0 0 0 0 0 0 0 0 0.9 0"/>
<feBlend mode="normal" in2="BackgroundImageFix" result="effect1_dropShadow_311_191"/>
<feBlend mode="normal" in="SourceGraphic" in2="effect1_dropShadow_311_191" result="shape"/>
</filter>
<linearGradient id="paint0_linear_311_191" x1="111.067" y1="2.58008" x2="111.067" y2="176.816" gradientUnits="userSpaceOnUse">
<stop stop-color="#4333F5"/>
<stop offset="1" stop-color="#F53356"/>
</linearGradient>
<linearGradient id="paint1_linear_311_191" x1="111.067" y1="2.58008" x2="111.067" y2="176.816" gradientUnits="userSpaceOnUse">
<stop stop-color="#4333F5"/>
<stop offset="1" stop-color="#F53356"/>
</linearGradient>
<linearGradient id="paint2_linear_311_191" x1="110.037" y1="92.9168" x2="110.037" y2="145.188" gradientUnits="userSpaceOnUse">
<stop stop-color="#9D33A3"/>
<stop offset="1" stop-color="#D33374"/>
</linearGradient>
</defs>
</svg>
