<svg width="239" height="207" viewBox="0 0 239 207" fill="none" xmlns="http://www.w3.org/2000/svg">
<g filter="url(#filter0_d_311_189)">
<circle cx="114.2" cy="101.5" r="100.5" fill="#121212"/>
<circle cx="114.2" cy="101.5" r="99" stroke="url(#paint0_linear_311_189)" stroke-width="3"/>
</g>
<g filter="url(#filter1_d_311_189)">
<path d="M219.859 59L223.385 73.21L234.398 77.76L223.385 82.31L219.859 96.52L216.333 82.31L205.32 77.76L216.333 73.21L219.859 59Z" fill="#D5B50C"/>
</g>
<g filter="url(#filter2_d_311_189)">
<path d="M205.806 85.8L208.199 95.4426L215.671 98.5301L208.199 101.618L205.806 111.26L203.413 101.618L195.94 98.5301L203.413 95.4426L205.806 85.8Z" fill="#D5B50C"/>
</g>
<g filter="url(#filter3_d_311_189)">
<path d="M205.2 55L206.704 61.0597L211.4 63L206.704 64.9403L205.2 71L203.696 64.9403L199 63L203.696 61.0597L205.2 55Z" fill="#D5B50C"/>
</g>
<g filter="url(#filter4_d_311_189)">
<path d="M33.05 150L35.4875 157.613L43.1 160.05L35.4875 162.488L33.05 170.1L30.6125 162.488L23 160.05L30.6125 157.613L33.05 150Z" fill="#D5B50C"/>
</g>
<g filter="url(#filter5_d_311_189)">
<path d="M16.9812 129L20.1297 141.687L29.9625 145.75L20.1297 149.812L16.9812 162.5L13.8328 149.812L4 145.75L13.8328 141.687L16.9812 129Z" fill="#D5B50C"/>
</g>
<g filter="url(#filter6_d_311_189)">
<path d="M29.626 115L32.0188 124.643L39.4918 127.73L32.0188 130.818L29.626 140.46L27.2332 130.818L19.7603 127.73L27.2332 124.643L29.626 115Z" fill="#D5B50C"/>
</g>
<g filter="url(#filter7_d_311_189)">
<path d="M118.496 71.5573C117.248 71.4412 115.996 71.3771 114.743 71.3652C89.895 71.3652 69.7624 91.5351 69.7624 116.423C69.7624 123.848 71.5885 130.828 74.7619 137C73.1072 131.977 72.2624 126.723 72.2593 121.434C72.2593 95.0467 92.6441 73.4779 118.496 71.5573ZM132.795 153.332C128.402 156.274 123.578 158.514 118.496 159.971C125.594 159.097 132.388 156.566 138.327 152.581C158.976 138.7 164.58 111.014 150.846 90.7238C150.145 89.7106 149.402 88.7274 148.619 87.7769C161.309 109.945 154.682 138.617 132.795 153.332Z" fill="url(#paint1_linear_311_189)"/>
<path d="M150.347 71.2878V46.3535C150.347 45.3101 149.777 44.4329 148.971 43.8882L166.5 15.5L154 9L139 4L123.137 1L114.067 14.6052L105 1.5L96.5002 2.5L83.0002 5.5L71.5002 10.5L61.0002 16L79.1565 43.8853C78.3509 44.43 77.7805 45.3101 77.7805 46.3535V71.2878C64.9349 81.8027 56.7334 97.7729 56.7334 115.667C56.7334 147.329 82.4044 173 114.067 173C116.022 173 117.948 172.9 119.852 172.708C148.796 169.809 171.4 145.38 171.4 115.667C171.4 97.7729 163.193 81.8027 150.347 71.2878ZM139 4L154 9L132.207 41.8185L123.137 28.2133L139 4ZM141.277 55.4237L144.066 51.2441C144.218 51.6024 144.301 51.9923 144.301 52.4022V64.4967C144.299 64.8707 144.222 65.2406 144.076 65.585C143.93 65.9294 143.717 66.2415 143.45 66.5033C134.85 61.3491 124.822 58.3333 114.067 58.3333C103.71 58.335 93.5488 61.1607 84.6777 66.5062C84.14 65.9748 83.834 65.2526 83.8263 64.4967V52.4022C83.8263 51.9923 83.9151 51.5995 84.0613 51.2441L86.8506 55.4265L141.277 55.4237ZM73.961 9.4301L81.3164 6.2321L83.0002 5.5L85 5.05561L88.7909 4.21319L121.228 52.557H103.087L73.961 9.4301ZM114.067 164.4C87.1516 164.4 65.3334 142.582 65.3334 115.667C65.3334 88.7544 87.1516 66.9333 114.067 66.9333C140.976 66.9333 162.8 88.7544 162.8 115.667C162.8 142.582 140.976 164.4 114.067 164.4Z" fill="url(#paint2_linear_311_189)"/>
<path d="M112.512 110.321L113.037 109.317L113.563 110.321C114.868 112.815 117.212 114.601 119.962 115.199L121.977 115.637L120.196 117.723C118.5 119.71 117.697 122.308 117.976 124.905L118.207 127.061L117.237 126.583C114.589 125.278 111.485 125.278 108.837 126.583L107.867 127.061L108.099 124.905C108.378 122.308 107.574 119.71 105.878 117.723L104.097 115.637L106.112 115.199C108.862 114.601 111.206 112.815 112.512 110.321Z" stroke="url(#paint3_linear_311_189)" stroke-width="15"/>
</g>
<defs>
<filter id="filter0_d_311_189" x="11.6002" y="0.9" width="205.2" height="205.2" filterUnits="userSpaceOnUse" color-interpolation-filters="sRGB">
<feFlood flood-opacity="0" result="BackgroundImageFix"/>
<feColorMatrix in="SourceAlpha" type="matrix" values="0 0 0 0 0 0 0 0 0 0 0 0 0 0 0 0 0 0 127 0" result="hardAlpha"/>
<feOffset dy="2"/>
<feGaussianBlur stdDeviation="1.05"/>
<feComposite in2="hardAlpha" operator="out"/>
<feColorMatrix type="matrix" values="0 0 0 0 0 0 0 0 0 0 0 0 0 0 0 0 0 0 0.8 0"/>
<feBlend mode="normal" in2="BackgroundImageFix" result="effect1_dropShadow_311_189"/>
<feBlend mode="normal" in="SourceGraphic" in2="effect1_dropShadow_311_189" result="shape"/>
</filter>
<filter id="filter1_d_311_189" x="201.32" y="59" width="37.0781" height="45.52" filterUnits="userSpaceOnUse" color-interpolation-filters="sRGB">
<feFlood flood-opacity="0" result="BackgroundImageFix"/>
<feColorMatrix in="SourceAlpha" type="matrix" values="0 0 0 0 0 0 0 0 0 0 0 0 0 0 0 0 0 0 127 0" result="hardAlpha"/>
<feOffset dy="4"/>
<feGaussianBlur stdDeviation="2"/>
<feComposite in2="hardAlpha" operator="out"/>
<feColorMatrix type="matrix" values="0 0 0 0 0 0 0 0 0 0 0 0 0 0 0 0 0 0 1 0"/>
<feBlend mode="normal" in2="BackgroundImageFix" result="effect1_dropShadow_311_189"/>
<feBlend mode="normal" in="SourceGraphic" in2="effect1_dropShadow_311_189" result="shape"/>
</filter>
<filter id="filter2_d_311_189" x="191.94" y="85.8" width="27.7314" height="33.46" filterUnits="userSpaceOnUse" color-interpolation-filters="sRGB">
<feFlood flood-opacity="0" result="BackgroundImageFix"/>
<feColorMatrix in="SourceAlpha" type="matrix" values="0 0 0 0 0 0 0 0 0 0 0 0 0 0 0 0 0 0 127 0" result="hardAlpha"/>
<feOffset dy="4"/>
<feGaussianBlur stdDeviation="2"/>
<feComposite in2="hardAlpha" operator="out"/>
<feColorMatrix type="matrix" values="0 0 0 0 0 0 0 0 0 0 0 0 0 0 0 0 0 0 1 0"/>
<feBlend mode="normal" in2="BackgroundImageFix" result="effect1_dropShadow_311_189"/>
<feBlend mode="normal" in="SourceGraphic" in2="effect1_dropShadow_311_189" result="shape"/>
</filter>
<filter id="filter3_d_311_189" x="195" y="55" width="20.3999" height="24" filterUnits="userSpaceOnUse" color-interpolation-filters="sRGB">
<feFlood flood-opacity="0" result="BackgroundImageFix"/>
<feColorMatrix in="SourceAlpha" type="matrix" values="0 0 0 0 0 0 0 0 0 0 0 0 0 0 0 0 0 0 127 0" result="hardAlpha"/>
<feOffset dy="4"/>
<feGaussianBlur stdDeviation="2"/>
<feComposite in2="hardAlpha" operator="out"/>
<feColorMatrix type="matrix" values="0 0 0 0 0 0 0 0 0 0 0 0 0 0 0 0 0 0 1 0"/>
<feBlend mode="normal" in2="BackgroundImageFix" result="effect1_dropShadow_311_189"/>
<feBlend mode="normal" in="SourceGraphic" in2="effect1_dropShadow_311_189" result="shape"/>
</filter>
<filter id="filter4_d_311_189" x="19" y="150" width="28.1001" height="28.1" filterUnits="userSpaceOnUse" color-interpolation-filters="sRGB">
<feFlood flood-opacity="0" result="BackgroundImageFix"/>
<feColorMatrix in="SourceAlpha" type="matrix" values="0 0 0 0 0 0 0 0 0 0 0 0 0 0 0 0 0 0 127 0" result="hardAlpha"/>
<feOffset dy="4"/>
<feGaussianBlur stdDeviation="2"/>
<feComposite in2="hardAlpha" operator="out"/>
<feColorMatrix type="matrix" values="0 0 0 0 0 0 0 0 0 0 0 0 0 0 0 0 0 0 1 0"/>
<feBlend mode="normal" in2="BackgroundImageFix" result="effect1_dropShadow_311_189"/>
<feBlend mode="normal" in="SourceGraphic" in2="effect1_dropShadow_311_189" result="shape"/>
</filter>
<filter id="filter5_d_311_189" x="0" y="129" width="33.9624" height="41.5" filterUnits="userSpaceOnUse" color-interpolation-filters="sRGB">
<feFlood flood-opacity="0" result="BackgroundImageFix"/>
<feColorMatrix in="SourceAlpha" type="matrix" values="0 0 0 0 0 0 0 0 0 0 0 0 0 0 0 0 0 0 127 0" result="hardAlpha"/>
<feOffset dy="4"/>
<feGaussianBlur stdDeviation="2"/>
<feComposite in2="hardAlpha" operator="out"/>
<feColorMatrix type="matrix" values="0 0 0 0 0 0 0 0 0 0 0 0 0 0 0 0 0 0 1 0"/>
<feBlend mode="normal" in2="BackgroundImageFix" result="effect1_dropShadow_311_189"/>
<feBlend mode="normal" in="SourceGraphic" in2="effect1_dropShadow_311_189" result="shape"/>
</filter>
<filter id="filter6_d_311_189" x="15.7603" y="115" width="27.7314" height="33.46" filterUnits="userSpaceOnUse" color-interpolation-filters="sRGB">
<feFlood flood-opacity="0" result="BackgroundImageFix"/>
<feColorMatrix in="SourceAlpha" type="matrix" values="0 0 0 0 0 0 0 0 0 0 0 0 0 0 0 0 0 0 127 0" result="hardAlpha"/>
<feOffset dy="4"/>
<feGaussianBlur stdDeviation="2"/>
<feComposite in2="hardAlpha" operator="out"/>
<feColorMatrix type="matrix" values="0 0 0 0 0 0 0 0 0 0 0 0 0 0 0 0 0 0 1 0"/>
<feBlend mode="normal" in2="BackgroundImageFix" result="effect1_dropShadow_311_189"/>
<feBlend mode="normal" in="SourceGraphic" in2="effect1_dropShadow_311_189" result="shape"/>
</filter>
<filter id="filter7_d_311_189" x="52.7334" y="1" width="122.667" height="180" filterUnits="userSpaceOnUse" color-interpolation-filters="sRGB">
<feFlood flood-opacity="0" result="BackgroundImageFix"/>
<feColorMatrix in="SourceAlpha" type="matrix" values="0 0 0 0 0 0 0 0 0 0 0 0 0 0 0 0 0 0 127 0" result="hardAlpha"/>
<feOffset dy="4"/>
<feGaussianBlur stdDeviation="2"/>
<feComposite in2="hardAlpha" operator="out"/>
<feColorMatrix type="matrix" values="0 0 0 0 0 0 0 0 0 0 0 0 0 0 0 0 0 0 0.9 0"/>
<feBlend mode="normal" in2="BackgroundImageFix" result="effect1_dropShadow_311_189"/>
<feBlend mode="normal" in="SourceGraphic" in2="effect1_dropShadow_311_189" result="shape"/>
</filter>
<linearGradient id="paint0_linear_311_189" x1="114.2" y1="1" x2="114.2" y2="202" gradientUnits="userSpaceOnUse">
<stop stop-color="#121212"/>
<stop offset="1" stop-color="#111111"/>
</linearGradient>
<linearGradient id="paint1_linear_311_189" x1="114.067" y1="3.58008" x2="114.067" y2="177.816" gradientUnits="userSpaceOnUse">
<stop stop-color="#4333F5"/>
<stop offset="1" stop-color="#F53356"/>
</linearGradient>
<linearGradient id="paint2_linear_311_189" x1="114.067" y1="3.58008" x2="114.067" y2="177.816" gradientUnits="userSpaceOnUse">
<stop stop-color="#4333F5"/>
<stop offset="1" stop-color="#F53356"/>
</linearGradient>
<linearGradient id="paint3_linear_311_189" x1="113.037" y1="93.9168" x2="113.037" y2="146.188" gradientUnits="userSpaceOnUse">
<stop stop-color="#9D33A3"/>
<stop offset="1" stop-color="#D33374"/>
</linearGradient>
</defs>
</svg>
