<svg width="70" height="59" viewBox="0 0 70 59" fill="none" xmlns="http://www.w3.org/2000/svg">
<mask id="mask0_136_37" style="mask-type:luminance" maskUnits="userSpaceOnUse" x="0" y="0" width="70" height="59">
<path d="M70 0H0V58.2451H70V0Z" fill="white"/>
</mask>
<g mask="url(#mask0_136_37)">
<path d="M15.785 10.1414V43.2121C15.7634 45.2911 14.9223 47.2776 13.4445 48.7401C11.9668 50.2026 9.97159 51.023 7.8925 51.023C5.81338 51.023 3.81824 50.2026 2.34046 48.7401C0.862673 47.2776 0.021622 45.2911 0 43.2121V10.1414C0.00135803 8.04835 0.833999 6.04156 2.3148 4.56235C3.79561 3.08315 5.8033 2.25268 7.89634 2.25358C9.20526 2.25011 10.4939 2.57596 11.6439 3.20115C11.6618 3.20884 11.6695 3.21823 11.678 3.21823C11.6825 3.22309 11.6885 3.22614 11.6951 3.22676C12.3496 3.58386 12.948 4.03546 13.4707 4.56701C14.2045 5.29803 14.7866 6.16677 15.1839 7.12338C15.581 8.07999 15.7853 9.10563 15.785 10.1414Z" fill="url(#paint0_linear_136_37)"/>
<path d="M33.8219 17.2866V50.3488C33.8219 51.3852 33.6178 52.4115 33.2211 53.3689C32.8245 54.3265 32.2432 55.1964 31.5103 55.9293C30.7775 56.6622 29.9074 57.2435 28.95 57.6401C27.9924 58.0367 26.9662 58.2409 25.9298 58.2409C24.8934 58.2409 23.8671 58.0367 22.9096 57.6401C21.9521 57.2435 21.0821 56.6622 20.3493 55.9293C19.6164 55.1964 19.035 54.3265 18.6384 53.3689C18.2418 52.4115 18.0377 51.3852 18.0377 50.3488V17.2866C18.0375 16.2496 18.2416 15.2226 18.6384 14.2645C19.035 13.3064 19.6167 12.4358 20.35 11.7025C21.0833 10.9693 21.9539 10.3876 22.9119 9.99088C23.8701 9.5941 24.897 9.38999 25.9341 9.39024C26.2158 9.39024 26.4889 9.40732 26.7536 9.43207H26.7715C28.7078 9.64259 30.4981 10.5606 31.7993 12.01C33.1004 13.4593 33.8207 15.3389 33.8219 17.2866Z" fill="url(#paint1_linear_136_37)"/>
<path d="M51.9621 7.88771V40.9584C51.9621 43.0515 51.1306 45.0589 49.6506 46.539C48.1705 48.0191 46.1631 48.8505 44.07 48.8505C41.9769 48.8505 39.9696 48.0191 38.4895 46.539C37.0094 45.0589 36.178 43.0515 36.178 40.9584V7.88771C36.178 6.85115 36.3822 5.82475 36.7792 4.8672C37.1761 3.90965 37.7579 3.03973 38.4913 2.30716C39.2246 1.5746 40.0951 0.993775 41.0531 0.597875C42.0111 0.201978 43.0377 -0.00121902 44.0743 -9.72045e-05C44.4 -0.00345248 44.7254 0.0193852 45.0475 0.0681954H45.0645C46.8003 0.278201 48.4149 1.06598 49.6487 2.30478C50.3825 3.03748 50.9646 3.90776 51.3616 4.86577C51.7586 5.82378 51.9626 6.8507 51.9621 7.88771Z" fill="url(#paint2_linear_136_37)"/>
<path d="M69.9998 16.91V49.9731C69.9998 51.0095 69.7956 52.0358 69.399 52.9932C69.0024 53.9508 68.4211 54.8208 67.6883 55.5536C66.9554 56.2865 66.0854 56.8678 65.1279 57.2644C64.1704 57.661 63.1441 57.8651 62.1078 57.8651C61.0713 57.8651 60.0451 57.661 59.0876 57.2644C58.13 56.8678 57.26 56.2865 56.5272 55.5536C55.7943 54.8208 55.213 53.9508 54.8164 52.9932C54.4198 52.0358 54.2157 51.0095 54.2157 49.9731V16.91C54.2155 15.873 54.4197 14.8462 54.8165 13.8881C55.2133 12.93 55.7949 12.0595 56.5282 11.3263C57.2614 10.593 58.132 10.0114 59.0901 9.61458C60.0481 9.2178 61.075 9.0136 62.112 9.01369C63.1564 9.00942 64.1906 9.21891 65.151 9.62918H65.1596C65.164 9.63404 65.1701 9.63712 65.1767 9.63771C66.1164 10.0304 66.9693 10.6048 67.6864 11.328C68.4224 12.0589 69.0058 12.9287 69.403 13.887C69.8002 14.8452 70.003 15.8728 69.9998 16.91Z" fill="url(#paint3_linear_136_37)"/>
<g style="mix-blend-mode:multiply" opacity="0.3">
<path d="M15.785 19.6596V43.212C15.7634 45.291 14.9223 47.2775 13.4445 48.74C11.9668 50.2025 9.97159 51.0228 7.8925 51.0228C5.81338 51.0228 3.81824 50.2025 2.34046 48.74C0.862673 47.2775 0.021622 45.291 0 43.212V41.8547C0 41.8547 0.0170744 42.0502 0.0512207 42.4087C0.0682939 42.7758 0.119513 43.3145 0.205733 43.9709C0.351168 44.7533 0.60366 45.5119 0.956098 46.2254C1.57923 47.4929 2.5495 48.5572 3.75397 49.2948C4.95844 50.0322 6.34759 50.4125 7.75976 50.3913C8.40019 50.3846 9.03709 50.2957 9.65488 50.1267C10.96 49.7592 12.1366 49.0349 13.0524 48.0352C13.9903 47.0181 14.6078 45.7473 14.828 44.3815C14.8451 44.2108 14.8878 44.0742 14.8963 43.8779L14.9313 43.2974C14.9476 42.9986 14.939 42.5462 14.9476 42.1791C14.9476 41.4108 14.9561 40.634 14.9646 39.8742C14.9646 38.3462 15.0159 36.8437 15.0338 35.384C15.0927 32.473 15.1866 29.7575 15.2976 27.4279C15.5033 22.7669 15.785 19.6596 15.785 19.6596Z" fill="black"/>
</g>
<g style="mix-blend-mode:overlay" opacity="0.6">
<path d="M11.6789 3.21829C11.3821 3.12153 11.08 3.04173 10.774 2.97926C9.98533 2.79645 9.17546 2.72178 8.36671 2.75731C8.11237 2.7668 7.85888 2.79247 7.6078 2.83414C7.34333 2.86665 7.08106 2.91511 6.82244 2.97926C5.06142 3.37757 3.49085 4.36916 2.37402 5.7878C1.9847 6.26485 1.65769 6.78951 1.40085 7.34914C1.15566 7.89097 0.969628 8.45766 0.845976 9.03938C0.783178 9.33535 0.737288 9.63456 0.708535 9.93573L0.682926 10.1662C0.682926 10.1748 0.674389 10.3028 0.665853 10.3626C0.657316 10.5162 0.648781 10.6699 0.632562 10.815C0.597562 11.4126 0.537805 11.976 0.486585 12.4967C0.382574 13.6594 0.220174 14.8162 0 15.9626V10.1406C0.00157618 8.77134 0.359165 7.42609 1.03766 6.23679C1.71616 5.0475 2.69225 4.05507 3.87012 3.35692C5.04799 2.65877 6.38716 2.2789 7.75617 2.2546C9.12518 2.2303 10.477 2.56239 11.6789 3.21829Z" fill="white"/>
</g>
<g style="mix-blend-mode:multiply" opacity="0.3">
<path d="M33.8219 26.7698V50.3487C33.8219 51.3851 33.6178 52.4113 33.2211 53.3689C32.8245 54.3264 32.2432 55.1964 31.5103 55.9292C30.7775 56.6621 29.9074 57.2434 28.95 57.64C27.9924 58.0367 26.9662 58.2408 25.9298 58.2408C24.8934 58.2408 23.8671 58.0367 22.9096 57.64C21.9521 57.2434 21.0821 56.6621 20.3493 55.9292C19.6164 55.1964 19.035 54.3264 18.6384 53.3689C18.2418 52.4113 18.0377 51.3851 18.0377 50.3487V49.3926C18.0377 49.3926 18.0548 49.5889 18.0889 49.9466C18.1192 50.4637 18.1905 50.9775 18.3024 51.4832C18.6879 53.241 19.6678 54.8121 21.0767 55.9316C21.9897 56.6506 23.0558 57.15 24.1926 57.3914C24.4831 57.4501 24.7767 57.4929 25.0719 57.5194C25.3957 57.5417 25.7206 57.5474 26.045 57.5365C26.6881 57.5012 27.3246 57.3892 27.941 57.2027C29.2178 56.7839 30.3566 56.0255 31.2353 55.0088C32.1364 53.9748 32.7125 52.698 32.8914 51.3381C32.9417 50.9873 32.9703 50.6338 32.9767 50.2795L32.9853 49.1263C32.9853 48.358 32.9938 47.5897 33.0032 46.8308C33.0032 45.3198 33.0536 43.8259 33.0715 42.3747C33.1304 39.4885 33.2243 36.7917 33.3353 34.4783C33.5402 29.8524 33.8219 26.7698 33.8219 26.7698Z" fill="black"/>
</g>
<g style="mix-blend-mode:overlay" opacity="0.6">
<path d="M26.7536 9.43207C26.6767 9.45 26.378 9.49268 25.9085 9.56098C25.6438 9.62927 25.3203 9.68049 24.9694 9.78293C24.5778 9.89723 24.193 10.0337 23.817 10.1918C23.3855 10.3826 22.9689 10.6055 22.5706 10.8585C22.1406 11.1434 21.7325 11.4601 21.3499 11.8061C20.9593 12.1849 20.6048 12.5992 20.2914 13.0439C19.9688 13.495 19.6941 13.9785 19.4719 14.4866C19.2554 14.9954 19.0898 15.5244 18.9776 16.0659C18.9203 16.3365 18.8773 16.6101 18.8487 16.8854L18.806 17.2943L18.7889 17.739C18.7292 18.9085 18.6353 20.0004 18.5243 20.9402C18.4203 21.9928 18.2579 23.0387 18.0377 24.0732V17.2866C18.0375 16.2496 18.2416 15.2226 18.6384 14.2645C19.035 13.3064 19.6167 12.4358 20.35 11.7025C21.0833 10.9693 21.9539 10.3876 22.9119 9.99088C23.8701 9.5941 24.897 9.38999 25.9341 9.39024C26.2158 9.39024 26.4889 9.40732 26.7536 9.43207Z" fill="white"/>
</g>
<g style="mix-blend-mode:multiply" opacity="0.3">
<path d="M51.9621 11.2683V40.9584C51.9621 43.0516 51.1306 45.059 49.6506 46.5391C48.1705 48.0191 46.1631 48.8506 44.07 48.8506C41.977 48.8506 39.9696 48.0191 38.4895 46.5391C37.0094 45.059 36.178 43.0516 36.178 40.9584V40.2927C36.178 40.2927 36.195 40.5061 36.2292 40.9073C36.2754 41.4816 36.3754 42.0504 36.528 42.6061C36.7736 43.4527 37.1603 44.2519 37.6719 44.9699C38.3138 45.8867 39.1504 46.6505 40.1219 47.2065C41.2495 47.8611 42.5313 48.2032 43.8353 48.1976C44.5264 48.2053 45.2148 48.1074 45.8764 47.9072C46.5726 47.714 47.2349 47.4146 47.8398 47.0195C49.0984 46.1929 50.0705 44.9972 50.6227 43.5963L50.8191 43.0671L50.9556 42.5113C51.0069 42.3243 51.0154 42.145 51.0495 41.9658C51.0862 41.7716 51.1033 41.5744 51.1008 41.3767C51.1435 40.6084 51.1008 39.678 51.1093 38.8415C51.1178 37.1171 51.1264 35.3926 51.1434 33.6938C51.1434 31.995 51.1947 30.3305 51.2117 28.7171C51.2715 25.4817 51.3654 22.4682 51.4764 19.8816C51.6804 14.7084 51.9621 11.2683 51.9621 11.2683Z" fill="black"/>
</g>
<g style="mix-blend-mode:overlay" opacity="0.6">
<path d="M45.0475 0.0681954C44.9365 0.0852686 44.6548 0.127951 44.2365 0.179171C43.9804 0.196244 43.6475 0.306366 43.2889 0.366122C42.8957 0.474689 42.5082 0.603188 42.128 0.751122C41.6916 0.932995 41.2693 1.147 40.8645 1.39137C40.4229 1.66134 40.0062 1.96986 39.6191 2.31332C39.4133 2.48405 39.2341 2.68893 39.0471 2.87673C38.8764 3.09868 38.6792 3.29417 38.5255 3.52551C38.1919 3.97071 37.9085 4.45139 37.6804 4.95881C37.4447 5.46164 37.2644 5.9886 37.1426 6.53039C37.1084 6.80356 37.0231 7.00844 36.9975 7.33283L36.9548 7.77588L36.9463 7.88771V7.89624L36.9377 7.90393V7.96454L36.9292 8.18649C36.8694 9.36455 36.7755 10.4572 36.6645 11.3963C36.5608 12.4516 36.3984 13.5004 36.178 14.5377V7.88771C36.178 6.85114 36.3822 5.82475 36.7792 4.8672C37.1761 3.90965 37.7579 3.03973 38.4913 2.30716C39.2246 1.5746 40.0951 0.993775 41.0531 0.597875C42.0111 0.201978 43.0377 -0.00121902 44.0743 -9.72045e-05C44.4 -0.00345248 44.7254 0.0193852 45.0475 0.0681954Z" fill="white"/>
</g>
<g style="mix-blend-mode:overlay" opacity="0.6">
<path d="M65.151 9.62918C65.0742 9.61125 64.7669 9.55149 64.2803 9.49259C63.9986 9.45845 63.6571 9.44052 63.273 9.43198C62.8449 9.43036 62.4172 9.45631 61.9925 9.50967C61.5023 9.58265 61.0175 9.68791 60.5413 9.82467C60.0281 9.99019 59.5309 10.2019 59.0559 10.4572C58.0409 11.0127 57.1585 11.7816 56.4693 12.7109C56.1168 13.176 55.8189 13.6801 55.5815 14.2133C55.3528 14.7288 55.1783 15.2667 55.0608 15.8182C54.9969 16.0963 54.9541 16.3788 54.9328 16.6633L54.9071 16.8767L54.8986 16.9194L54.8901 16.9527L54.8815 17.0645C54.873 17.2097 54.8645 17.3463 54.8559 17.4914C54.8132 18.0548 54.762 18.5926 54.7023 19.0792C54.5986 20.1826 54.4362 21.2797 54.2157 22.3658V16.91C54.2155 15.873 54.4197 14.8462 54.8165 13.8881C55.2133 12.93 55.7949 12.0595 56.5282 11.3263C57.2614 10.593 58.132 10.0114 59.0901 9.61458C60.0481 9.2178 61.075 9.0136 62.112 9.01369C63.1564 9.00942 64.1906 9.21891 65.151 9.62918Z" fill="white"/>
</g>
<g style="mix-blend-mode:multiply" opacity="0.3">
<path d="M69.9998 28.7683V49.9732C69.9998 51.0095 69.7956 52.0358 69.399 52.9933C69.0024 53.9508 68.4211 54.8208 67.6883 55.5537C66.9554 56.2865 66.0854 56.8678 65.1279 57.2644C64.1704 57.6611 63.1441 57.8652 62.1078 57.8652C61.0713 57.8652 60.0451 57.6611 59.0876 57.2644C58.13 56.8678 57.26 56.2865 56.5272 55.5537C55.7943 54.8208 55.213 53.9508 54.8164 52.9933C54.4198 52.0358 54.2157 51.0095 54.2157 49.9732C54.2157 49.9732 54.2413 50.1524 54.2925 50.4939C54.314 50.6963 54.354 50.8963 54.412 51.0915C54.4649 51.3616 54.539 51.627 54.634 51.8854C55.067 53.1951 55.8422 54.3652 56.8793 55.2747C57.9164 56.1842 59.1777 56.8 60.5328 57.0585C60.8145 57.1098 61.0791 57.1268 61.3608 57.161L61.8388 57.1695H62.1547L62.2657 57.1524C62.8677 57.1211 63.4638 57.0179 64.0413 56.8451C65.2352 56.4753 66.3141 55.8049 67.1742 54.8979C67.6127 54.4321 67.9912 53.9133 68.301 53.3537C68.5952 52.7863 68.8161 52.184 68.9584 51.561C69.0345 51.2579 69.0887 50.9498 69.1206 50.639L69.1547 50.1098V49.9732L69.1632 49.8784V49.6146C69.1632 48.8975 69.1718 48.1796 69.1803 47.472C69.1803 46.0634 69.2315 44.6634 69.2486 43.3232C69.3084 40.6256 69.4023 38.1073 69.5132 35.9561C69.7181 31.6357 69.9998 28.7683 69.9998 28.7683Z" fill="black"/>
</g>
</g>
<defs>
<linearGradient id="paint0_linear_136_37" x1="7.8925" y1="1.32694" x2="7.8925" y2="45.9021" gradientUnits="userSpaceOnUse">
<stop stop-color="#4333F5"/>
<stop offset="1" stop-color="#F80300"/>
</linearGradient>
<linearGradient id="paint1_linear_136_37" x1="25.9298" y1="10.123" x2="25.9298" y2="59.6087" gradientUnits="userSpaceOnUse">
<stop stop-color="#4333F5"/>
<stop offset="1" stop-color="#F53356"/>
</linearGradient>
<linearGradient id="paint2_linear_136_37" x1="44.07" y1="1.31856" x2="44.07" y2="45.9683" gradientUnits="userSpaceOnUse">
<stop stop-color="#4333F5"/>
<stop offset="0.9875" stop-color="#F80300"/>
</linearGradient>
<linearGradient id="paint3_linear_136_37" x1="62.1078" y1="10.1372" x2="62.1078" y2="59.6239" gradientUnits="userSpaceOnUse">
<stop stop-color="#4333F5"/>
<stop offset="0.0001" stop-color="#4333F5"/>
<stop offset="1" stop-color="#F53356"/>
</linearGradient>
</defs>
</svg>
