<svg width="19" height="22" viewBox="0 0 19 22" fill="none" xmlns="http://www.w3.org/2000/svg">
<path d="M18.5625 10.9693C18.5632 11.2558 18.4897 11.5375 18.3493 11.7872C18.2088 12.0369 18.0061 12.246 17.7609 12.3942L2.565 21.6902C2.3088 21.8471 2.01537 21.9327 1.715 21.9383C1.41464 21.9438 1.11824 21.8691 0.856407 21.7218C0.597069 21.5768 0.381034 21.3654 0.230517 21.1092C0.0799996 20.853 0.000433327 20.5614 0 20.2642V1.67432C0.000433327 1.37719 0.0799996 1.08555 0.230517 0.829375C0.381034 0.5732 0.597069 0.361738 0.856407 0.216737C1.11824 0.0694487 1.41464 -0.00527294 1.715 0.00028935C2.01537 0.00585164 2.3088 0.0914963 2.565 0.248378L17.7609 9.54439C18.0061 9.69255 18.2088 9.90164 18.3493 10.1513C18.4897 10.401 18.5632 10.6828 18.5625 10.9693Z" fill="#140C0C"/>
</svg>
