<svg width="231" height="201" viewBox="0 0 231 201" fill="none" xmlns="http://www.w3.org/2000/svg">
<circle cx="110.2" cy="100.5" r="100.5" fill="white" fill-opacity="0.21"/>
<path d="M215.859 58L219.385 72.21L230.398 76.76L219.385 81.31L215.859 95.52L212.333 81.31L201.32 76.76L212.333 72.21L215.859 58Z" fill="#FFD809"/>
<path d="M201.806 84.8L204.199 94.4426L211.671 97.5301L204.199 100.618L201.806 110.26L199.413 100.618L191.94 97.5301L199.413 94.4426L201.806 84.8Z" fill="#FFD809"/>
<path d="M201.2 54L202.704 60.0597L207.4 62L202.704 63.9403L201.2 70L199.696 63.9403L195 62L199.696 60.0597L201.2 54Z" fill="#FFD809"/>
<path d="M29.05 149L31.4875 156.613L39.1 159.05L31.4875 161.488L29.05 169.1L26.6125 161.488L19 159.05L26.6125 156.613L29.05 149Z" fill="#FFD809"/>
<path d="M12.9812 128L16.1297 140.687L25.9625 144.75L16.1297 148.812L12.9812 161.5L9.83279 148.812L0 144.75L9.83279 140.687L12.9812 128Z" fill="#FFD809"/>
<path d="M25.626 114L28.0188 123.643L35.4918 126.73L28.0188 129.818L25.626 139.46L23.2332 129.818L15.7603 126.73L23.2332 123.643L25.626 114Z" fill="#FFD809"/>
<path d="M114.496 70.5573C113.248 70.4412 111.996 70.3771 110.743 70.3652C85.895 70.3652 65.7624 90.5351 65.7624 115.423C65.7624 122.848 67.5885 129.828 70.7619 136C69.1072 130.977 68.2624 125.723 68.2593 120.434C68.2593 94.0467 88.6441 72.4779 114.496 70.5573ZM128.795 152.332C124.402 155.274 119.578 157.514 114.496 158.971C121.594 158.097 128.388 155.566 134.327 151.581C154.976 137.7 160.58 110.014 146.846 89.7238C146.145 88.7106 145.402 87.7274 144.619 86.7769C157.309 108.945 150.682 137.617 128.795 152.332Z" fill="url(#paint0_linear_311_189)"/>
<path d="M146.347 70.2878V45.3535C146.347 44.3101 145.777 43.4329 144.971 42.8882L162.5 14.5L150 8L135 3L119.137 0L110.067 13.6052L101 0.5L92.5002 1.5L79.0002 4.5L67.5002 9.5L57.0002 15L75.1565 42.8853C74.3509 43.43 73.7805 44.3101 73.7805 45.3535V70.2878C60.9349 80.8027 52.7334 96.7729 52.7334 114.667C52.7334 146.329 78.4044 172 110.067 172C112.022 172 113.948 171.9 115.852 171.708C144.796 168.809 167.4 144.38 167.4 114.667C167.4 96.7729 159.193 80.8027 146.347 70.2878ZM135 3L150 8L128.207 40.8185L119.137 27.2133L135 3ZM137.277 54.4237L140.066 50.2441C140.218 50.6024 140.301 50.9923 140.301 51.4022V63.4967C140.299 63.8707 140.222 64.2406 140.076 64.585C139.93 64.9294 139.717 65.2415 139.45 65.5033C130.85 60.3491 120.822 57.3333 110.067 57.3333C99.7095 57.335 89.5488 60.1607 80.6777 65.5062C80.14 64.9748 79.834 64.2526 79.8263 63.4967V51.4022C79.8263 50.9923 79.9151 50.5995 80.0613 50.2441L82.8506 54.4265L137.277 54.4237ZM69.961 8.4301L77.3164 5.2321L79.0002 4.5L81 4.05561L84.7909 3.21319L117.228 51.557H99.0874L69.961 8.4301ZM110.067 163.4C83.1516 163.4 61.3334 141.582 61.3334 114.667C61.3334 87.7544 83.1516 65.9333 110.067 65.9333C136.976 65.9333 158.8 87.7544 158.8 114.667C158.8 141.582 136.976 163.4 110.067 163.4Z" fill="url(#paint1_linear_311_189)"/>
<path d="M108.512 109.321L109.037 108.317L109.563 109.321C110.868 111.815 113.212 113.601 115.962 114.199L117.977 114.637L116.196 116.723C114.5 118.71 113.697 121.308 113.976 123.905L114.207 126.061L113.237 125.583C110.589 124.278 107.485 124.278 104.837 125.583L103.867 126.061L104.099 123.905C104.378 121.308 103.574 118.71 101.878 116.723L100.097 114.637L102.112 114.199C104.862 113.601 107.206 111.815 108.512 109.321Z" stroke="url(#paint2_linear_311_189)" stroke-width="15"/>
<defs>
<linearGradient id="paint0_linear_311_189" x1="110.067" y1="2.58008" x2="110.067" y2="176.816" gradientUnits="userSpaceOnUse">
<stop stop-color="#4333F5"/>
<stop offset="1" stop-color="#F53356"/>
</linearGradient>
<linearGradient id="paint1_linear_311_189" x1="110.067" y1="2.58008" x2="110.067" y2="176.816" gradientUnits="userSpaceOnUse">
<stop stop-color="#4333F5"/>
<stop offset="1" stop-color="#F53356"/>
</linearGradient>
<linearGradient id="paint2_linear_311_189" x1="109.037" y1="92.9168" x2="109.037" y2="145.188" gradientUnits="userSpaceOnUse">
<stop stop-color="#9D33A3"/>
<stop offset="1" stop-color="#D33374"/>
</linearGradient>
</defs>
</svg>
