<svg width="22" height="23" viewBox="0 0 22 23" fill="none" xmlns="http://www.w3.org/2000/svg">
<path d="M9.18688 18.9891C11.2252 18.9887 13.2048 18.3064 14.8104 17.0507L19.8586 22.0989L21.4824 20.4751L16.4342 15.4269C17.6905 13.8211 18.3733 11.8411 18.3738 9.80226C18.3738 4.73684 14.2523 0.615379 9.18688 0.615379C4.12146 0.615379 0 4.73684 0 9.80226C0 14.8677 4.12146 18.9891 9.18688 18.9891ZM9.18688 2.9121C12.9868 2.9121 16.077 6.00234 16.077 9.80226C16.077 13.6022 12.9868 16.6924 9.18688 16.6924C5.38696 16.6924 2.29672 13.6022 2.29672 9.80226C2.29672 6.00234 5.38696 2.9121 9.18688 2.9121Z" fill="white"/>
</svg>
